<svg width="86" height="111" viewBox="0 0 86 111" fill="none" xmlns="http://www.w3.org/2000/svg">
<path d="M61.688 80.3491C63.4758 89.3077 64.2994 91.8109 61.2527 95.4376C54.434 102.692 48.3028 100.95 43.1179 100.95C37.7864 100.95 28.2167 100.71 24.983 95.8728C22.8709 92.7137 22.5167 84.4116 23.9675 79.4789C25.5633 70.484 34.1591 60.6184 42.9728 60.6184C51.7865 60.6184 59.515 69.4608 61.688 80.3491Z" fill="#FFDDDD" stroke="black" stroke-width="5"/>
<path d="M27.7395 80.7287C33.3002 83.147 36.0963 83.3027 37.1696 81.8001C37.895 80.7846 36.9648 78.9841 34.3424 76.2871" stroke="black" stroke-width="5" stroke-linecap="round"/>
<path d="M24.9621 106.629C26.8624 108.83 33.4038 106.934 38.998 100.748L28.2161 98.4207C25.9848 101.449 23.3799 104.796 24.9621 106.629Z" fill="#FFDDDD" stroke="black" stroke-width="5" stroke-linecap="round"/>
<path d="M61.2637 106.629C59.3634 108.83 52.8221 106.934 47.2278 100.748L58.0098 98.4207C60.2411 101.449 62.8459 104.796 61.2637 106.629Z" fill="#FFDDDD" stroke="black" stroke-width="5" stroke-linecap="round"/>
<path d="M55.6875 80.7287C50.1268 83.147 47.3307 83.3027 46.2574 81.8001C45.532 80.7846 46.4622 78.9841 49.0846 76.2871" stroke="black" stroke-width="5" stroke-linecap="round"/>
<path d="M82.8695 39.5822C84.734 59.0417 66.3946 74.8267 42.3925 74.8363C25.7084 74.8363 1.46729 68.9944 3.07614 39.7273C4.26 18.1912 16.717 2.32175 42.3925 3.02232C65.3064 3.64754 82.8695 20.1118 82.8695 39.5822Z" fill="#FFDDDD" stroke="black" stroke-width="5"/>
<circle cx="16.7136" cy="40.5976" r="5.80315" fill="black"/>
<circle cx="56.175" cy="40.5976" r="5.80315" fill="black"/>
<path d="M28.1748 44.9502C34.0101 47.2231 37.2826 47.1991 43.1179 44.9502" stroke="black" stroke-width="7" stroke-linecap="round"/>
</svg>
