<svg width="1282" height="6152" viewBox="0 0 1282 6152" fill="none" xmlns="http://www.w3.org/2000/svg">
<line x1="16.75" y1="6152" x2="16.7503" y2="-1.09276e-08" stroke="#687789" stroke-width="0.5"/>
<line x1="266.75" y1="6152" x2="266.75" y2="-1" stroke="#687789" stroke-width="0.5"/>
<line x1="516.75" y1="6152" x2="516.75" y2="-1.09276e-08" stroke="#687789" stroke-width="0.5"/>
<line x1="766.75" y1="6152" x2="766.75" y2="-1" stroke="#687789" stroke-width="0.5"/>
<line x1="1016.75" y1="6152" x2="1016.75" y2="-1" stroke="#687789" stroke-width="0.5"/>
<line x1="1266.75" y1="6152" x2="1266.75" y2="-1.09276e-08" stroke="#687789" stroke-width="0.5"/>
<line x1="250.669" y1="1958.46" x2="279.26" y2="1929.87" stroke="#687789" stroke-width="10"/>
<line y1="-5" x2="40.4337" y2="-5" transform="matrix(0.707107 0.707107 0.707107 -0.707107 254.205 1926)" stroke="#687789" stroke-width="10"/>
<path d="M1002 1176.95L1030 1149M1002 1149.05L1030 1177" stroke="#687789" stroke-width="10"/>
<circle cx="16" cy="201" r="11" fill="#373F48" stroke="#687789" stroke-width="10"/>
<circle cx="767" cy="975" r="18" fill="#373F48" stroke="#687789" stroke-width="10"/>
<circle cx="517" cy="2795" r="18" fill="#373F48" stroke="#687789" stroke-width="10"/>
<circle cx="1266" cy="431" r="11" fill="#373F48" stroke="#687789" stroke-width="10"/>
<line x1="253.192" y1="795.464" x2="276.737" y2="771.919" stroke="#687789" stroke-width="10"/>
<line y1="-5" x2="33.2983" y2="-5" transform="matrix(0.707107 0.707107 0.707107 -0.707107 256.727 768)" stroke="#687789" stroke-width="10"/>
<path d="M1002 86.9463L1030 59M1002 59.0537L1030 87" stroke="#687789" stroke-width="10"/>
</svg>
