<svg width="87" height="129" viewBox="0 0 87 129" fill="none" xmlns="http://www.w3.org/2000/svg">
<path d="M62.1824 90.5871C63.9851 102.739 64.8155 106.134 61.7436 111.053C54.8684 120.892 48.6864 118.531 43.4585 118.531C38.0829 118.531 28.434 118.204 25.1735 111.643C23.0439 107.358 22.6868 96.0974 24.1495 89.4067C25.7586 77.206 34.4255 63.8242 43.3123 63.8242C52.199 63.8242 59.9915 75.8181 62.1824 90.5871Z" fill="#FFDDDD" stroke="black" stroke-width="5"/>
<path d="M27.9116 91.4823C33.5111 93.9174 36.3266 94.0742 37.4074 92.5611C38.1378 91.5385 37.2011 89.7255 34.5605 87.0098" stroke="black" stroke-width="5" stroke-linecap="round"/>
<path d="M25.115 124.685C27.0285 126.902 33.6154 124.993 39.2485 118.764L28.3916 116.42C26.1447 119.47 23.5218 122.839 25.115 124.685Z" fill="#FFDDDD" stroke="black" stroke-width="5" stroke-linecap="round"/>
<path d="M61.6692 124.685C59.7557 126.902 53.1688 124.993 47.5356 118.764L58.3926 116.42C60.6394 119.47 63.2624 122.839 61.6692 124.685Z" fill="#FFDDDD" stroke="black" stroke-width="5" stroke-linecap="round"/>
<path d="M56.0541 91.4823C50.4547 93.9174 47.6392 94.0742 46.5584 92.5611C45.828 91.5385 46.7646 89.7255 49.4053 87.0098" stroke="black" stroke-width="5" stroke-linecap="round"/>
<path d="M83.4252 42.6148C85.3026 62.2097 66.8356 78.1045 42.6666 78.1142C25.8664 78.1142 1.45662 72.2316 3.07667 42.7609C4.26877 21.075 16.8125 5.0951 42.6666 5.80055C65.7399 6.43012 83.4252 23.009 83.4252 42.6148Z" fill="#FFDDDD" stroke="black" stroke-width="5"/>
<circle cx="16.809" cy="43.6375" r="5.84353" fill="black"/>
<circle cx="56.5449" cy="43.6375" r="5.84353" fill="black"/>
<path d="M29.1036 51.3987H44.1159" stroke="black" stroke-width="7" stroke-linecap="round"/>
<path d="M47.9943 42.479L60.9953 34.9729" stroke="black" stroke-width="7" stroke-linecap="round"/>
<path d="M60.8637 2L60.8637 8.86936H67.7331" stroke="#FF3232" stroke-width="4" stroke-linecap="round"/>
<path d="M67.7331 14.8694L60.8637 14.8694L60.8637 21.7387" stroke="#FF3232" stroke-width="4" stroke-linecap="round"/>
<path d="M54.8637 2L54.8637 8.86936H47.9943" stroke="#FF3232" stroke-width="4" stroke-linecap="round"/>
<path d="M47.9943 14.8694L54.8637 14.8694L54.8637 21.7387" stroke="#FF3232" stroke-width="4" stroke-linecap="round"/>
<path d="M25.6181 43.166L12.6171 35.6599" stroke="black" stroke-width="7" stroke-linecap="round"/>
</svg>

