<svg width="282" height="366" viewBox="0 0 282 366" fill="none" xmlns="http://www.w3.org/2000/svg">
<path d="M205.262 269.576C211.424 300.451 214.262 309.078 203.762 321.577C180.262 346.577 159.132 340.576 141.262 340.576C122.888 340.576 89.907 339.746 78.7624 323.077C71.4832 312.189 70.2624 283.577 75.2623 266.577C80.7623 235.577 110.387 201.576 140.762 201.576C171.138 201.576 197.773 232.051 205.262 269.576Z" fill="#FF3232" stroke="black" stroke-width="5"/>
<path d="M88.2623 270.884C107.427 279.219 117.063 279.755 120.762 274.577C123.262 271.077 120.056 264.872 111.019 255.577" stroke="black" stroke-width="5" stroke-linecap="round"/>
<path d="M78.6905 360.145C85.2398 367.733 107.784 361.199 127.064 339.879L89.9049 331.858C82.2149 342.295 73.2376 353.828 78.6905 360.145Z" fill="#FF3232" stroke="black" stroke-width="5" stroke-linecap="round"/>
<path d="M203.801 360.145C197.251 367.733 174.707 361.199 155.427 339.879L192.586 331.858C200.276 342.295 209.253 353.828 203.801 360.145Z" fill="#FF3232" stroke="black" stroke-width="5" stroke-linecap="round"/>
<path d="M184.583 270.884C165.418 279.219 155.781 279.755 152.083 274.577C149.583 271.077 152.788 264.872 161.826 255.577" stroke="black" stroke-width="5" stroke-linecap="round"/>
<path d="M278.262 129.077C284.688 196.142 221.483 250.544 138.762 250.577C81.2624 250.577 -2.28235 230.443 3.2624 129.577C7.34247 55.355 50.2744 0.662465 138.762 3.07692C217.733 5.23169 278.262 61.9743 278.262 129.077Z" fill="#FF3232" stroke="black" stroke-width="5"/>
<ellipse cx="37.7625" cy="150.577" rx="19.5" ry="13" fill="#C20600"/>
<ellipse cx="197.762" cy="150.577" rx="19.5" ry="13" fill="#C20600"/>
<circle cx="50.2625" cy="132.577" r="20" fill="black"/>
<circle cx="186.262" cy="132.577" r="20" fill="black"/>
<path d="M89.7625 147.577C109.873 155.41 121.151 155.327 141.262 147.577" stroke="black" stroke-width="7" stroke-linecap="round"/>
</svg>
