<svg width="86" height="110" viewBox="0 0 86 110" fill="none" xmlns="http://www.w3.org/2000/svg">
<path d="M61.6879 79.6699C63.4758 88.5497 64.2993 91.0309 61.2527 94.6257C54.434 101.816 48.3028 100.09 43.1178 100.09C37.7863 100.09 28.2167 99.8513 24.983 95.0571C22.8709 91.9258 22.5166 83.6966 23.9674 78.8073C25.5633 69.8915 34.159 60.1125 42.9727 60.1125C51.7865 60.1125 59.5149 68.8772 61.6879 79.6699Z" fill="white" stroke="black" stroke-width="5"/>
<path d="M27.7394 80.0451C33.3002 82.4422 36.0963 82.5965 37.1696 81.1071C37.895 80.1005 36.9648 78.3159 34.3424 75.6426" stroke="black" stroke-width="5" stroke-linecap="round"/>
<path d="M24.9621 105.718C26.8624 107.9 33.4038 106.021 38.998 99.8895L28.2161 97.5824C25.9848 100.584 23.3799 103.901 24.9621 105.718Z" fill="white" stroke="black" stroke-width="5" stroke-linecap="round"/>
<path d="M61.2638 105.718C59.3635 107.9 52.8221 106.021 47.2279 99.8895L58.0098 97.5824C60.2411 100.584 62.846 103.901 61.2638 105.718Z" fill="white" stroke="black" stroke-width="5" stroke-linecap="round"/>
<path d="M55.6876 80.0451C50.1268 82.4422 47.3307 82.5965 46.2574 81.1071C45.532 80.1005 46.4622 78.3159 49.0846 75.6426" stroke="black" stroke-width="5" stroke-linecap="round"/>
<path d="M82.8695 39.2607C84.734 58.5492 66.3946 74.1955 42.3925 74.205C25.7084 74.205 1.46729 68.4144 3.07614 39.4045C4.26 18.0577 16.717 2.32771 42.3925 3.02212C65.3064 3.64185 82.8695 19.9614 82.8695 39.2607Z" fill="white" stroke="black" stroke-width="5"/>
<ellipse cx="16.7135" cy="40.2673" rx="5.80315" ry="5.75215" fill="black"/>
<ellipse cx="56.175" cy="40.2673" rx="5.80315" ry="5.75215" fill="black"/>
<path d="M28.1748 44.5808C34.0101 46.8338 37.2826 46.8099 43.1179 44.5808" stroke="black" stroke-width="7" stroke-linecap="round"/>
<path d="M16.5496 16.9473L5.94171 32.6453C10.6319 15.2546 18.57 6.22185 41.5 4.5C59.9642 5.98272 70.0544 13.2721 77.524 25.8416L58.4142 16.2586L16.5496 16.9473Z" fill="#E6FF80"/>
</svg>
