<svg width="86" height="121" viewBox="0 0 86 121" fill="none" xmlns="http://www.w3.org/2000/svg">
<path d="M10.978 3.43237C10.978 3.43237 24.7936 6.15662 31.2971 13.7247C37.8006 21.2929 15.0175 20.9708 15.0175 20.9708C10.4876 16.9197 10.978 3.43237 10.978 3.43237Z" fill="#949494" stroke="black" stroke-width="5" stroke-linecap="round"/>
<path d="M78.7233 7.72945C78.7233 7.72945 64.6433 7.93901 56.8912 14.222C49.1391 20.5051 71.6124 24.2628 71.6124 24.2628C76.7938 21.0871 78.7233 7.72945 78.7233 7.72945Z" fill="#949494" stroke="black" stroke-width="5" stroke-linecap="round"/>
<path d="M61.688 90.5107C63.4758 99.4693 64.2994 101.972 61.2527 105.599C54.434 112.853 48.3028 111.112 43.1179 111.112C37.7864 111.112 28.2167 110.871 24.983 106.034C22.8709 102.875 22.5167 94.5732 23.9675 89.6405C25.5633 80.6456 34.1591 70.78 42.9728 70.78C51.7865 70.78 59.515 79.6224 61.688 90.5107Z" fill="#949494" stroke="black" stroke-width="5"/>
<path d="M27.7396 90.8903C33.3003 93.3086 36.0964 93.4643 37.1697 91.9617C37.8951 90.9462 36.9649 89.1457 34.3425 86.4487" stroke="black" stroke-width="5" stroke-linecap="round"/>
<path d="M24.9623 116.79C26.8626 118.991 33.4039 117.096 38.9982 110.91L28.2162 108.582C25.9849 111.611 23.3801 114.957 24.9623 116.79Z" fill="#949494" stroke="black" stroke-width="5" stroke-linecap="round"/>
<path d="M61.2638 116.79C59.3635 118.991 52.8222 117.096 47.2279 110.91L58.0099 108.582C60.2412 111.611 62.846 114.957 61.2638 116.79Z" fill="#949494" stroke="black" stroke-width="5" stroke-linecap="round"/>
<path d="M55.6876 90.8903C50.1269 93.3086 47.3308 93.4643 46.2575 91.9617C45.5321 90.9462 46.4623 89.1457 49.0847 86.4487" stroke="black" stroke-width="5" stroke-linecap="round"/>
<path d="M82.8695 49.744C84.734 69.2036 66.3946 84.9886 42.3925 84.9982C25.7084 84.9982 1.46729 79.1562 3.07614 49.8891C4.26 28.3531 16.717 12.4836 42.3925 13.1842C65.3064 13.8094 82.8695 30.2737 82.8695 49.744Z" fill="#949494" stroke="black" stroke-width="5"/>
<circle cx="16.7136" cy="50.7595" r="5.80315" fill="black"/>
<circle cx="56.175" cy="50.7595" r="5.80315" fill="black"/>
<path d="M28.1748 55.1118C34.0101 57.3848 37.2826 57.3607 43.1179 55.1118" stroke="black" stroke-width="7" stroke-linecap="round"/>
<path d="M18.1622 12.7571L21.2755 15.8705" stroke="black" stroke-width="7" stroke-linecap="round"/>
<path d="M68.3398 15.886L64.8783 18.6071" stroke="black" stroke-width="7" stroke-linecap="round"/>
</svg>
