<svg width="86" height="127" viewBox="0 0 86 127" fill="none" xmlns="http://www.w3.org/2000/svg">
<path d="M61.7515 88.0608C63.541 100.501 65.9085 103.113 65.9085 108.398C65.9085 115.558 48.3537 116.668 43.1639 116.668C37.8274 116.668 23.2851 115.729 20.0483 109.013C17.9342 104.626 22.5434 93.702 23.9955 86.8524C25.5929 74.3621 34.1966 60.6626 43.0187 60.6626C51.8407 60.6626 59.5764 72.9412 61.7515 88.0608Z" fill="#FFDDDD" stroke="black" stroke-width="5"/>
<path d="M26.9425 85.7068C31.5451 89.6546 36.5667 100.178 39.9231 97.6169C43.2795 95.0559 36.2726 86.7547 34.5602 83.4053" stroke="black" stroke-width="5" stroke-linecap="round"/>
<path d="M57.8242 83.7586C53.8633 88.3501 50.4709 99.5057 46.7694 97.4751C43.068 95.4444 48.7555 86.1893 49.9481 82.6216" stroke="black" stroke-width="5" stroke-linecap="round"/>
<path d="M24.9622 122.995C26.8626 125.196 33.4039 123.301 38.9981 117.114L28.2162 114.787C25.9849 117.815 23.38 121.162 24.9622 122.995Z" fill="#FFDDDD" stroke="black" stroke-width="5" stroke-linecap="round"/>
<path d="M61.2638 122.995C59.3635 125.196 52.8222 123.301 47.2279 117.114L58.0099 114.787C60.2412 117.815 62.846 121.162 61.2638 122.995Z" fill="#FFDDDD" stroke="black" stroke-width="5" stroke-linecap="round"/>
<path d="M82.8695 39.5822C84.734 59.0417 66.3946 74.8267 42.3925 74.8363C25.7084 74.8363 1.46729 68.9943 3.07614 39.7273C4.26 18.1912 16.717 2.32175 42.3925 3.02232C65.3064 3.64754 82.8695 20.1118 82.8695 39.5822Z" fill="#FFDDDD" stroke="black" stroke-width="5"/>
<circle cx="16.7134" cy="40.5978" r="5.80315" fill="black"/>
<circle cx="56.175" cy="40.5978" r="5.80315" fill="black"/>
<path d="M28.1748 44.95C34.0101 47.2229 37.2826 47.1988 43.1179 44.95" stroke="black" stroke-width="7" stroke-linecap="round"/>
</svg>
