<svg width="86" height="111" viewBox="0 0 86 111" fill="none" xmlns="http://www.w3.org/2000/svg">
<path d="M61.688 80.3489C63.4758 89.3075 64.2994 91.8106 61.2527 95.4373C54.434 102.691 48.3028 100.95 43.1179 100.95C37.7864 100.95 28.2167 100.709 24.983 95.8726C22.8709 92.7134 22.5167 84.4113 23.9675 79.4787C25.5633 70.4838 34.1591 60.6182 42.9728 60.6182C51.7865 60.6182 59.515 69.4606 61.688 80.3489Z" fill="#53A2FF" stroke="black" stroke-width="5"/>
<path d="M27.7394 80.7287C33.3002 83.147 36.0963 83.3027 37.1696 81.8001C37.895 80.7846 36.9648 78.9841 34.3424 76.2871" stroke="black" stroke-width="5" stroke-linecap="round"/>
<path d="M24.9621 106.628C26.8624 108.83 33.4038 106.934 38.998 100.748L28.2161 98.4204C25.9848 101.449 23.3799 104.795 24.9621 106.628Z" fill="#53A2FF" stroke="black" stroke-width="5" stroke-linecap="round"/>
<path d="M61.2638 106.628C59.3635 108.83 52.8221 106.934 47.2279 100.748L58.0098 98.4204C60.2411 101.449 62.846 104.795 61.2638 106.628Z" fill="#53A2FF" stroke="black" stroke-width="5" stroke-linecap="round"/>
<path d="M55.6876 80.7287C50.1268 83.147 47.3307 83.3027 46.2574 81.8001C45.532 80.7846 46.4622 78.9841 49.0846 76.2871" stroke="black" stroke-width="5" stroke-linecap="round"/>
<path d="M82.8695 39.5822C84.734 59.0417 66.3946 74.8267 42.3925 74.8363C25.7084 74.8363 1.46729 68.9944 3.07614 39.7273C4.26 18.1912 16.717 2.32175 42.3925 3.02232C65.3064 3.64754 82.8695 20.1118 82.8695 39.5822Z" fill="#53A2FF" stroke="black" stroke-width="5"/>
<circle cx="16.7135" cy="40.5976" r="5.80315" fill="black"/>
<circle cx="56.175" cy="40.5976" r="5.80315" fill="black"/>
<path d="M28.1748 44.95C34.0101 47.2229 37.2826 47.1988 43.1179 44.95" stroke="black" stroke-width="7" stroke-linecap="round"/>
<path d="M33.5733 15.5073H40.8692C39.5492 19.4746 39.2343 21.7768 39.4893 26.0279H32.1494C32.1886 21.6351 32.4167 19.2855 33.5733 15.5073Z" fill="#FFF500"/>
<path d="M35.8193 32.8787L44.0829 25.9057H27.5558L35.8193 32.8787Z" fill="#FFF500"/>
</svg>
