<svg width="1536" height="864" viewBox="0 0 1536 864" fill="none" xmlns="http://www.w3.org/2000/svg">
<rect width="1536" height="864" fill="#7FF180"/>
<path d="M224 733C226.04 727.793 233.384 715.744 246.441 709.198C238.706 717.132 226.193 733 238.026 733C249.858 733 257.236 713 259.446 703C260.211 713 261.282 733 259.446 733C263.441 731.843 271.432 728.041 271.432 722.091C272.537 725.149 274.594 731.612 273.982 733C277.127 730.851 282.856 724.372 280.612 715.645C282.907 719.777 287.14 729.033 285.712 733" stroke="#1B9C37" stroke-width="5"/>
<path d="M1226 169C1226 169 1226.91 163.35 1239.18 156.75C1231.91 164.75 1228.06 169 1239.18 169C1250.3 169 1250.77 161.583 1252.84 151.5C1253.56 161.583 1259.31 169 1259.31 169C1263.07 167.833 1267.94 164 1267.94 158C1268.98 161.083 1273.55 167.6 1272.98 169C1275.93 166.833 1276.33 156.75 1284 149C1281.6 162 1284 169 1284 169" stroke="#1B9C37" stroke-width="5"/>
<path d="M786 666C787.861 660.9 788.559 662.6 788.559 651.186C796.702 655.314 798.098 666 798.098 666C798.098 666 803.992 658.795 806.008 649C806.706 658.795 820.712 666 819.037 666C819.037 666 824.853 654.829 824.853 649C825.861 651.995 832.856 664.64 832.298 666C835.167 663.895 833.694 655.314 840.906 649C839.51 666 843 666 843 666" stroke="#1B9C37" stroke-width="5"/>
<path d="M1140 449C1141.86 443.9 1142.56 445.6 1142.56 434.186C1150.7 438.314 1152.1 449 1152.1 449C1152.1 449 1157.99 441.795 1160.01 432C1160.71 441.795 1174.71 449 1173.04 449C1173.04 449 1178.85 437.829 1178.85 432C1179.86 434.995 1186.86 447.64 1186.3 449C1189.17 446.895 1187.69 438.314 1194.91 432C1193.51 449 1197 449 1197 449" stroke="#1B9C37" stroke-width="5"/>
<path d="M130 391C132.108 385.522 127.576 372.322 141.067 365.435C133.074 373.783 132.266 391 144.493 391C156.719 391 148.006 385.609 150.29 375.087C151.08 385.609 166.627 391 166.627 391C170.755 389.783 166.627 379 166.627 372.739C167.769 375.957 182.279 389.539 181.647 391C184.897 388.739 189.236 364.183 186.917 355C189.288 359.348 195.244 386.826 193.768 391" stroke="#1B9C37" stroke-width="5"/>
<path d="M1315 627C1317.04 621.62 1324.38 609.169 1337.44 602.405C1329.71 610.603 1317.19 627 1329.03 627C1340.86 627 1348.24 606.333 1350.45 596C1351.21 606.333 1352.28 627 1350.45 627C1354.44 625.804 1362.43 621.876 1362.43 615.727C1363.54 618.887 1365.59 625.565 1364.98 627C1368.13 624.78 1373.86 618.084 1371.61 609.066C1373.91 613.336 1378.14 622.901 1376.71 627" stroke="#1B9C37" stroke-width="5"/>
<path d="M1119 703C1119 703 1119.91 697.35 1132.18 690.75C1124.91 698.75 1121.06 703 1132.18 703C1143.3 703 1143.77 695.583 1145.84 685.5C1146.56 695.583 1152.31 703 1152.31 703C1156.07 701.833 1160.94 698 1160.94 692C1161.98 695.083 1166.55 701.6 1165.98 703C1168.93 700.833 1169.33 690.75 1177 683C1174.6 696 1177 703 1177 703" stroke="#1B9C37" stroke-width="5"/>
<path d="M327 186C328.861 180.9 329.559 182.6 329.559 171.186C337.702 175.314 339.098 186 339.098 186C339.098 186 344.992 178.795 347.008 169C347.706 178.795 361.712 186 360.037 186C360.037 186 365.853 174.829 365.853 169C366.861 171.995 373.856 184.64 373.298 186C376.167 183.895 374.694 175.314 381.906 169C380.51 186 384 186 384 186" stroke="#1B9C37" stroke-width="5"/>
<path d="M481 519C483.108 513.522 478.576 500.322 492.067 493.435C484.074 501.783 483.266 519 495.493 519C507.719 519 499.006 513.609 501.29 503.087C502.08 513.609 517.627 519 517.627 519C521.755 517.783 517.627 507 517.627 500.739C518.769 503.957 533.279 517.539 532.647 519C535.897 516.739 540.236 492.183 537.917 483C540.288 487.348 546.244 514.826 544.768 519" stroke="#1B9C37" stroke-width="5"/>
<path d="M843 281C845.04 275.62 852.384 263.169 865.441 256.405C857.706 264.603 845.193 281 857.026 281C868.858 281 876.236 260.333 878.446 250C879.211 260.333 880.282 281 878.446 281C882.441 279.804 890.432 275.876 890.432 269.727C891.537 272.887 893.594 279.565 892.982 281C896.127 278.78 901.856 272.084 899.612 263.066C901.907 267.336 906.14 276.901 904.712 281" stroke="#1B9C37" stroke-width="5"/>
</svg>
