<svg width="1534" height="39" viewBox="0 0 1534 39" fill="none" xmlns="http://www.w3.org/2000/svg">
<path d="M0.221735 35.31C1.66406 29.8998 -1.38756 18.8008 8.5232 11.9463C8.98655 11.6259 9.52262 12.2605 9.20029 12.7225C3.03067 21.5665 3.29814 36 14.4927 36C25.3183 36 19.7281 31.7735 19.8899 23.5015C19.9012 22.9249 20.8544 22.8893 21.0668 23.4255C24.1538 31.2159 35.0968 35.44 36.4825 35.948C36.5804 35.9839 36.6845 35.9848 36.7822 35.9484C40.095 34.7131 37.619 26.769 36.8403 20.6312C36.7696 20.074 37.8643 19.7115 38.2144 20.1507C41.4649 24.2276 48.5602 31.2567 50.9009 34.4554C51.1982 34.8616 52.4542 35.0597 52.6874 34.6135C55.3207 29.5755 58.1248 13.4655 57.477 3.89826C57.4373 3.31205 58.1185 3.12809 58.2905 3.6899C60.9333 12.3222 64.7852 31.3953 63.8595 35.6698C63.8146 35.8769 63.6264 36 63.4145 36H14.4927H0.72814C0.377217 36 0.131337 35.649 0.221735 35.31Z" fill="#7FF180"/>
<path d="M14.4927 36C3.29814 36 3.03067 21.5665 9.20029 12.7225C9.52262 12.2605 8.98655 11.6259 8.5232 11.9463C-1.38756 18.8008 1.66406 29.8998 0.221735 35.31C0.131337 35.649 0.377217 36 0.72814 36H63.4145C63.6264 36 63.8146 35.8769 63.8594 35.6698C64.7852 31.3954 60.9333 12.3222 58.2905 3.6899C58.1185 3.12809 57.4373 3.31205 57.477 3.89826C58.1248 13.4655 55.3207 29.5755 52.6874 34.6135C52.4542 35.0597 51.1982 34.8616 50.9009 34.4554C48.5602 31.2567 41.4649 24.2276 38.2144 20.1507C37.8643 19.7115 36.7696 20.074 36.8403 20.6312C37.619 26.769 40.095 34.7131 36.7822 35.9484C36.6845 35.9848 36.5804 35.9839 36.4825 35.948C35.0968 35.44 24.1538 31.2159 21.0668 23.4255C20.8544 22.8893 19.9012 22.9249 19.8899 23.5015C19.7281 31.7735 25.3183 36 14.4927 36Z" stroke="#7FF180" stroke-width="5"/>
<path d="M141.266 35.3313C143.462 30.0461 149.902 19.5227 160.875 12.8485C161.356 12.5559 161.831 13.153 161.457 13.5741C153.817 22.1827 144.164 36 155.026 36C165.672 36 172.712 19.2691 175.627 8.38789C175.776 7.8296 176.65 7.90057 176.688 8.4773C177.209 16.4361 177.72 27.4733 177.312 32.8302C177.269 33.4047 179.107 35.0183 179.63 34.776C182.789 33.3119 186.424 30.8779 187.832 27.5897C188.053 27.0721 189.185 26.9855 189.352 27.523C190.063 29.8056 190.793 32.4714 191.021 34.2557C191.085 34.7555 191.974 35.2284 192.344 34.8864C194.951 32.477 198.163 27.9244 198.12 22.0159C198.115 21.4276 199.131 21.1081 199.375 21.6436C201.456 26.2131 203.661 32.3845 202.814 35.6611C202.761 35.867 202.57 36 202.357 36H155.026H141.724C141.374 36 141.132 35.6544 141.266 35.3313Z" fill="#7FF180"/>
<path d="M155.026 36C144.164 36 153.817 22.1827 161.457 13.5741C161.831 13.153 161.356 12.5559 160.875 12.8485C149.902 19.5227 143.462 30.0461 141.266 35.3313C141.132 35.6544 141.374 36 141.724 36H202.357C202.57 36 202.761 35.867 202.814 35.6611C203.661 32.3845 201.456 26.2131 199.375 21.6436C199.131 21.1081 198.115 21.4276 198.12 22.0159C198.163 27.9244 194.951 32.477 192.344 34.8864C191.974 35.2284 191.085 34.7555 191.021 34.2557C190.793 32.4714 190.063 29.8056 189.352 27.523C189.185 26.9855 188.053 27.0721 187.832 27.5897C186.424 30.8779 182.789 33.3119 179.63 34.776C179.107 35.0183 177.269 33.4047 177.312 32.8302C177.72 27.4733 177.209 16.4361 176.688 8.4773C176.65 7.90057 175.776 7.8296 175.627 8.38789C172.712 19.2691 165.672 36 155.026 36Z" stroke="#7FF180" stroke-width="5"/>
<path d="M77.0518 17.0038C76.8653 27.2744 73.174 30.7132 71.2598 35.3338C71.1269 35.6546 71.3675 36 71.7147 36H133.442C133.928 36 134.209 35.2804 133.893 34.9106C132.046 32.7475 128.604 27.0625 129.318 15.2372C129.345 14.7888 128.82 14.5278 128.503 14.8461C123.312 20.0565 123.339 26.4775 121.862 29.5988C121.646 30.0554 120.614 29.7588 120.442 29.2842C119.372 26.3421 116.344 20.5216 114.571 16.7932C114.328 16.2818 113.098 16.4703 112.979 17.0241C111.928 21.9241 108.955 28.1589 107.908 30.2664C107.741 30.6024 107.576 30.6628 107.329 30.3805C105.558 28.3594 97.424 21.6743 94.7956 14.5239C94.5952 13.9786 93.2998 13.9619 93.1447 14.5219C91.3712 20.9244 88.5953 26.9543 87.3034 29.5972C87.0893 30.0353 86.41 29.9362 86.2991 29.4613C85.6016 26.4737 83.4702 19.8902 77.7746 16.5749C77.4523 16.3873 77.0586 16.6309 77.0518 17.0038Z" fill="#7FF180" stroke="#7FF180" stroke-width="5"/>
<path d="M210.222 35.31C211.664 29.8998 208.612 18.8008 218.523 11.9463C218.987 11.6259 219.523 12.2605 219.2 12.7225C213.031 21.5665 213.298 36 224.493 36C235.318 36 229.728 31.7735 229.89 23.5015C229.901 22.9249 230.854 22.8893 231.067 23.4255C234.154 31.2159 245.097 35.44 246.482 35.948C246.58 35.9839 246.684 35.9848 246.782 35.9484C250.095 34.7131 247.619 26.769 246.84 20.6312C246.77 20.074 247.864 19.7115 248.214 20.1507C251.465 24.2276 258.56 31.2567 260.901 34.4554C261.198 34.8616 262.454 35.0597 262.687 34.6135C265.321 29.5755 268.125 13.4655 267.477 3.89826C267.437 3.31205 268.118 3.12809 268.29 3.6899C270.933 12.3222 274.785 31.3953 273.859 35.6698C273.815 35.8769 273.626 36 273.414 36H224.493H210.728C210.377 36 210.131 35.649 210.222 35.31Z" fill="#7FF180"/>
<path d="M224.493 36C213.298 36 213.031 21.5665 219.2 12.7225C219.523 12.2605 218.987 11.6259 218.523 11.9463C208.612 18.8008 211.664 29.8998 210.222 35.31C210.131 35.649 210.377 36 210.728 36H273.414C273.626 36 273.815 35.8769 273.859 35.6698C274.785 31.3954 270.933 12.3222 268.29 3.6899C268.118 3.12809 267.437 3.31205 267.477 3.89826C268.125 13.4655 265.321 29.5755 262.687 34.6135C262.454 35.0597 261.198 34.8616 260.901 34.4554C258.56 31.2567 251.465 24.2276 248.214 20.1507C247.864 19.7115 246.77 20.074 246.84 20.6312C247.619 26.769 250.095 34.7131 246.782 35.9484C246.684 35.9848 246.58 35.9839 246.482 35.948C245.097 35.44 234.154 31.2159 231.067 23.4255C230.854 22.8893 229.901 22.9249 229.89 23.5015C229.728 31.7735 235.318 36 224.493 36Z" stroke="#7FF180" stroke-width="5"/>
<path d="M351.266 35.3313C353.462 30.0461 359.902 19.5227 370.875 12.8485C371.356 12.5559 371.831 13.153 371.457 13.5741C363.817 22.1827 354.164 36 365.026 36C375.672 36 382.712 19.2691 385.627 8.38789C385.776 7.8296 386.65 7.90057 386.688 8.4773C387.209 16.4361 387.72 27.4733 387.312 32.8302C387.269 33.4047 389.107 35.0183 389.63 34.776C392.789 33.3119 396.424 30.8779 397.832 27.5897C398.053 27.0721 399.185 26.9855 399.352 27.523C400.063 29.8056 400.793 32.4714 401.021 34.2557C401.085 34.7555 401.974 35.2284 402.344 34.8864C404.951 32.477 408.163 27.9244 408.12 22.0159C408.115 21.4276 409.131 21.1081 409.375 21.6436C411.456 26.2131 413.661 32.3845 412.814 35.6611C412.761 35.867 412.57 36 412.357 36H365.026H351.724C351.374 36 351.132 35.6544 351.266 35.3313Z" fill="#7FF180"/>
<path d="M365.026 36C354.164 36 363.817 22.1827 371.457 13.5741C371.831 13.153 371.356 12.5559 370.875 12.8485C359.902 19.5227 353.462 30.0461 351.266 35.3313C351.132 35.6544 351.374 36 351.724 36H412.357C412.57 36 412.761 35.867 412.814 35.6611C413.661 32.3845 411.456 26.2131 409.375 21.6436C409.131 21.1081 408.115 21.4276 408.12 22.0159C408.163 27.9244 404.951 32.477 402.344 34.8864C401.974 35.2284 401.085 34.7555 401.021 34.2557C400.793 32.4714 400.063 29.8056 399.352 27.523C399.185 26.9855 398.053 27.0721 397.832 27.5897C396.424 30.8779 392.789 33.3119 389.63 34.776C389.107 35.0183 387.269 33.4047 387.312 32.8302C387.72 27.4733 387.209 16.4361 386.688 8.4773C386.65 7.90057 385.776 7.8296 385.627 8.38789C382.712 19.2691 375.672 36 365.026 36Z" stroke="#7FF180" stroke-width="5"/>
<path d="M287.052 17.0038C286.865 27.2744 283.174 30.7132 281.26 35.3338C281.127 35.6546 281.368 36 281.715 36H343.442C343.928 36 344.209 35.2804 343.893 34.9106C342.046 32.7475 338.604 27.0625 339.318 15.2372C339.345 14.7888 338.82 14.5278 338.503 14.8461C333.312 20.0565 333.339 26.4775 331.862 29.5988C331.646 30.0554 330.614 29.7588 330.442 29.2842C329.372 26.3421 326.344 20.5216 324.571 16.7932C324.328 16.2818 323.098 16.4703 322.979 17.0241C321.928 21.9241 318.955 28.1589 317.908 30.2664C317.741 30.6024 317.576 30.6628 317.329 30.3805C315.558 28.3594 307.424 21.6743 304.796 14.5239C304.595 13.9786 303.3 13.9619 303.145 14.5219C301.371 20.9244 298.595 26.9543 297.303 29.5972C297.089 30.0353 296.41 29.9362 296.299 29.4613C295.602 26.4737 293.47 19.8902 287.775 16.5749C287.452 16.3873 287.059 16.6309 287.052 17.0038Z" fill="#7FF180" stroke="#7FF180" stroke-width="5"/>
<path d="M418.222 35.31C419.664 29.8998 416.612 18.8008 426.523 11.9463C426.987 11.6259 427.523 12.2605 427.2 12.7225C421.031 21.5665 421.298 36 432.493 36C443.318 36 437.728 31.7735 437.89 23.5015C437.901 22.9249 438.854 22.8893 439.067 23.4255C442.154 31.2159 453.097 35.44 454.482 35.948C454.58 35.9839 454.684 35.9848 454.782 35.9484C458.095 34.7131 455.619 26.769 454.84 20.6312C454.77 20.074 455.864 19.7115 456.214 20.1507C459.465 24.2276 466.56 31.2567 468.901 34.4554C469.198 34.8616 470.454 35.0597 470.687 34.6135C473.321 29.5755 476.125 13.4655 475.477 3.89826C475.437 3.31205 476.118 3.12809 476.29 3.6899C478.933 12.3222 482.785 31.3953 481.859 35.6698C481.815 35.8769 481.626 36 481.414 36H432.493H418.728C418.377 36 418.131 35.649 418.222 35.31Z" fill="#7FF180"/>
<path d="M432.493 36C421.298 36 421.031 21.5665 427.2 12.7225C427.523 12.2605 426.987 11.6259 426.523 11.9463C416.612 18.8008 419.664 29.8998 418.222 35.31C418.131 35.649 418.377 36 418.728 36H481.414C481.626 36 481.815 35.8769 481.859 35.6698C482.785 31.3954 478.933 12.3222 476.29 3.6899C476.118 3.12809 475.437 3.31205 475.477 3.89826C476.125 13.4655 473.321 29.5755 470.687 34.6135C470.454 35.0597 469.198 34.8616 468.901 34.4554C466.56 31.2567 459.465 24.2276 456.214 20.1507C455.864 19.7115 454.77 20.074 454.84 20.6312C455.619 26.769 458.095 34.7131 454.782 35.9484C454.684 35.9848 454.58 35.9839 454.482 35.948C453.097 35.44 442.154 31.2159 439.067 23.4255C438.854 22.8893 437.901 22.9249 437.89 23.5015C437.728 31.7735 443.318 36 432.493 36Z" stroke="#7FF180" stroke-width="5"/>
<path d="M559.266 35.3313C561.462 30.0461 567.902 19.5227 578.875 12.8485C579.356 12.5559 579.831 13.153 579.457 13.5741C571.817 22.1827 562.164 36 573.026 36C583.672 36 590.712 19.2691 593.627 8.38789C593.776 7.8296 594.65 7.90057 594.688 8.4773C595.209 16.4361 595.72 27.4733 595.312 32.8302C595.269 33.4047 597.107 35.0183 597.63 34.776C600.789 33.3119 604.424 30.8779 605.832 27.5897C606.053 27.0721 607.185 26.9855 607.352 27.523C608.063 29.8056 608.793 32.4714 609.021 34.2557C609.085 34.7555 609.974 35.2284 610.344 34.8864C612.951 32.477 616.163 27.9244 616.12 22.0159C616.115 21.4276 617.131 21.1081 617.375 21.6436C619.456 26.2131 621.661 32.3845 620.814 35.6611C620.761 35.867 620.57 36 620.357 36H573.026H559.724C559.374 36 559.132 35.6544 559.266 35.3313Z" fill="#7FF180"/>
<path d="M573.026 36C562.164 36 571.817 22.1827 579.457 13.5741C579.831 13.153 579.356 12.5559 578.875 12.8485C567.902 19.5227 561.462 30.0461 559.266 35.3313C559.132 35.6544 559.374 36 559.724 36H620.357C620.57 36 620.761 35.867 620.814 35.6611C621.661 32.3845 619.456 26.2131 617.375 21.6436C617.131 21.1081 616.115 21.4276 616.12 22.0159C616.163 27.9244 612.951 32.477 610.344 34.8864C609.974 35.2284 609.085 34.7555 609.021 34.2557C608.793 32.4714 608.063 29.8056 607.352 27.523C607.185 26.9855 606.053 27.0721 605.832 27.5897C604.424 30.8779 600.789 33.3119 597.63 34.776C597.107 35.0183 595.269 33.4047 595.312 32.8302C595.72 27.4733 595.209 16.4361 594.688 8.4773C594.65 7.90057 593.776 7.8296 593.627 8.38789C590.712 19.2691 583.672 36 573.026 36Z" stroke="#7FF180" stroke-width="5"/>
<path d="M495.052 17.0038C494.865 27.2744 491.174 30.7132 489.26 35.3338C489.127 35.6546 489.368 36 489.715 36H551.442C551.928 36 552.209 35.2804 551.893 34.9106C550.046 32.7475 546.604 27.0625 547.318 15.2372C547.345 14.7888 546.82 14.5278 546.503 14.8461C541.312 20.0565 541.339 26.4775 539.862 29.5988C539.646 30.0554 538.614 29.7588 538.442 29.2842C537.372 26.3421 534.344 20.5216 532.571 16.7932C532.328 16.2818 531.098 16.4703 530.979 17.0241C529.928 21.9241 526.955 28.1589 525.908 30.2664C525.741 30.6024 525.576 30.6628 525.329 30.3805C523.558 28.3594 515.424 21.6743 512.796 14.5239C512.595 13.9786 511.3 13.9619 511.145 14.5219C509.371 20.9244 506.595 26.9543 505.303 29.5972C505.089 30.0353 504.41 29.9362 504.299 29.4613C503.602 26.4737 501.47 19.8902 495.775 16.5749C495.452 16.3873 495.059 16.6309 495.052 17.0038Z" fill="#7FF180" stroke="#7FF180" stroke-width="5"/>
<path d="M628.222 35.31C629.664 29.8998 626.612 18.8008 636.523 11.9463C636.987 11.6259 637.523 12.2605 637.2 12.7225C631.031 21.5665 631.298 36 642.493 36C653.318 36 647.728 31.7735 647.89 23.5015C647.901 22.9249 648.854 22.8893 649.067 23.4255C652.154 31.2159 663.097 35.44 664.482 35.948C664.58 35.9839 664.684 35.9848 664.782 35.9484C668.095 34.7131 665.619 26.769 664.84 20.6312C664.77 20.074 665.864 19.7115 666.214 20.1507C669.465 24.2276 676.56 31.2567 678.901 34.4554C679.198 34.8616 680.454 35.0597 680.687 34.6135C683.321 29.5755 686.125 13.4655 685.477 3.89826C685.437 3.31205 686.118 3.12809 686.29 3.6899C688.933 12.3222 692.785 31.3953 691.859 35.6698C691.815 35.8769 691.626 36 691.414 36H642.493H628.728C628.377 36 628.131 35.649 628.222 35.31Z" fill="#7FF180"/>
<path d="M642.493 36C631.298 36 631.031 21.5665 637.2 12.7225C637.523 12.2605 636.987 11.6259 636.523 11.9463C626.612 18.8008 629.664 29.8998 628.222 35.31C628.131 35.649 628.377 36 628.728 36H691.414C691.626 36 691.815 35.8769 691.859 35.6698C692.785 31.3954 688.933 12.3222 686.29 3.6899C686.118 3.12809 685.437 3.31205 685.477 3.89826C686.125 13.4655 683.321 29.5755 680.687 34.6135C680.454 35.0597 679.198 34.8616 678.901 34.4554C676.56 31.2567 669.465 24.2276 666.214 20.1507C665.864 19.7115 664.77 20.074 664.84 20.6312C665.619 26.769 668.095 34.7131 664.782 35.9484C664.684 35.9848 664.58 35.9839 664.482 35.948C663.097 35.44 652.154 31.2159 649.067 23.4255C648.854 22.8893 647.901 22.9249 647.89 23.5015C647.728 31.7735 653.318 36 642.493 36Z" stroke="#7FF180" stroke-width="5"/>
<path d="M769.266 35.3313C771.462 30.0461 777.902 19.5227 788.875 12.8485C789.356 12.5559 789.831 13.153 789.457 13.5741C781.817 22.1827 772.164 36 783.026 36C793.672 36 800.712 19.2691 803.627 8.38789C803.776 7.8296 804.65 7.90057 804.688 8.4773C805.209 16.4361 805.72 27.4733 805.312 32.8302C805.269 33.4047 807.107 35.0183 807.63 34.776C810.789 33.3119 814.424 30.8779 815.832 27.5897C816.053 27.0721 817.185 26.9855 817.352 27.523C818.063 29.8056 818.793 32.4714 819.021 34.2557C819.085 34.7555 819.974 35.2284 820.344 34.8864C822.951 32.477 826.163 27.9244 826.12 22.0159C826.115 21.4276 827.131 21.1081 827.375 21.6436C829.456 26.2131 831.661 32.3845 830.814 35.6611C830.761 35.867 830.57 36 830.357 36H783.026H769.724C769.374 36 769.132 35.6544 769.266 35.3313Z" fill="#7FF180"/>
<path d="M783.026 36C772.164 36 781.817 22.1827 789.457 13.5741C789.831 13.153 789.356 12.5559 788.875 12.8485C777.902 19.5227 771.462 30.0461 769.266 35.3313C769.132 35.6544 769.374 36 769.724 36H830.357C830.57 36 830.761 35.867 830.814 35.6611C831.661 32.3845 829.456 26.2131 827.375 21.6436C827.131 21.1081 826.115 21.4276 826.12 22.0159C826.163 27.9244 822.951 32.477 820.344 34.8864C819.974 35.2284 819.085 34.7555 819.021 34.2557C818.793 32.4714 818.063 29.8056 817.352 27.523C817.185 26.9855 816.053 27.0721 815.832 27.5897C814.424 30.8779 810.789 33.3119 807.63 34.776C807.107 35.0183 805.269 33.4047 805.312 32.8302C805.72 27.4733 805.209 16.4361 804.688 8.4773C804.65 7.90057 803.776 7.8296 803.627 8.38789C800.712 19.2691 793.672 36 783.026 36Z" stroke="#7FF180" stroke-width="5"/>
<path d="M705.052 17.0038C704.865 27.2744 701.174 30.7132 699.26 35.3338C699.127 35.6546 699.368 36 699.715 36H761.442C761.928 36 762.209 35.2804 761.893 34.9106C760.046 32.7475 756.604 27.0625 757.318 15.2372C757.345 14.7888 756.82 14.5278 756.503 14.8461C751.312 20.0565 751.339 26.4775 749.862 29.5988C749.646 30.0554 748.614 29.7588 748.442 29.2842C747.372 26.3421 744.344 20.5216 742.571 16.7932C742.328 16.2818 741.098 16.4703 740.979 17.0241C739.928 21.9241 736.955 28.1589 735.908 30.2664C735.741 30.6024 735.576 30.6628 735.329 30.3805C733.558 28.3594 725.424 21.6743 722.796 14.5239C722.595 13.9786 721.3 13.9619 721.145 14.5219C719.371 20.9244 716.595 26.9543 715.303 29.5972C715.089 30.0353 714.41 29.9362 714.299 29.4613C713.602 26.4737 711.47 19.8902 705.775 16.5749C705.452 16.3873 705.059 16.6309 705.052 17.0038Z" fill="#7FF180" stroke="#7FF180" stroke-width="5"/>
<path d="M839.222 35.31C840.664 29.8998 837.612 18.8008 847.523 11.9463C847.987 11.6259 848.523 12.2605 848.2 12.7225C842.031 21.5665 842.298 36 853.493 36C864.318 36 858.728 31.7735 858.89 23.5015C858.901 22.9249 859.854 22.8893 860.067 23.4255C863.154 31.2159 874.097 35.44 875.482 35.948C875.58 35.9839 875.684 35.9848 875.782 35.9484C879.095 34.7131 876.619 26.769 875.84 20.6312C875.77 20.074 876.864 19.7115 877.214 20.1507C880.465 24.2276 887.56 31.2567 889.901 34.4554C890.198 34.8616 891.454 35.0597 891.687 34.6135C894.321 29.5755 897.125 13.4655 896.477 3.89826C896.437 3.31205 897.118 3.12809 897.29 3.6899C899.933 12.3222 903.785 31.3953 902.859 35.6698C902.815 35.8769 902.626 36 902.414 36H853.493H839.728C839.377 36 839.131 35.649 839.222 35.31Z" fill="#7FF180"/>
<path d="M853.493 36C842.298 36 842.031 21.5665 848.2 12.7225C848.523 12.2605 847.987 11.6259 847.523 11.9463C837.612 18.8008 840.664 29.8998 839.222 35.31C839.131 35.649 839.377 36 839.728 36H902.414C902.626 36 902.815 35.8769 902.859 35.6698C903.785 31.3954 899.933 12.3222 897.29 3.6899C897.118 3.12809 896.437 3.31205 896.477 3.89826C897.125 13.4655 894.321 29.5755 891.687 34.6135C891.454 35.0597 890.198 34.8616 889.901 34.4554C887.56 31.2567 880.465 24.2276 877.214 20.1507C876.864 19.7115 875.77 20.074 875.84 20.6312C876.619 26.769 879.095 34.7131 875.782 35.9484C875.684 35.9848 875.58 35.9839 875.482 35.948C874.097 35.44 863.154 31.2159 860.067 23.4255C859.854 22.8893 858.901 22.9249 858.89 23.5015C858.728 31.7735 864.318 36 853.493 36Z" stroke="#7FF180" stroke-width="5"/>
<path d="M980.266 35.3313C982.462 30.0461 988.902 19.5227 999.875 12.8485C1000.36 12.5559 1000.83 13.153 1000.46 13.5741C992.817 22.1827 983.164 36 994.026 36C1004.67 36 1011.71 19.2691 1014.63 8.38789C1014.78 7.8296 1015.65 7.90057 1015.69 8.4773C1016.21 16.4361 1016.72 27.4733 1016.31 32.8302C1016.27 33.4047 1018.11 35.0183 1018.63 34.776C1021.79 33.3119 1025.42 30.8779 1026.83 27.5897C1027.05 27.0721 1028.19 26.9855 1028.35 27.523C1029.06 29.8056 1029.79 32.4714 1030.02 34.2557C1030.08 34.7555 1030.97 35.2284 1031.34 34.8864C1033.95 32.477 1037.16 27.9244 1037.12 22.0159C1037.12 21.4276 1038.13 21.1081 1038.38 21.6436C1040.46 26.2131 1042.66 32.3845 1041.81 35.6611C1041.76 35.867 1041.57 36 1041.36 36H994.026H980.724C980.374 36 980.132 35.6544 980.266 35.3313Z" fill="#7FF180"/>
<path d="M994.026 36C983.164 36 992.817 22.1827 1000.46 13.5741C1000.83 13.153 1000.36 12.5559 999.875 12.8485C988.902 19.5227 982.462 30.0461 980.266 35.3313C980.132 35.6544 980.374 36 980.724 36H1041.36C1041.57 36 1041.76 35.867 1041.81 35.6611C1042.66 32.3845 1040.46 26.2131 1038.38 21.6436C1038.13 21.1081 1037.12 21.4276 1037.12 22.0159C1037.16 27.9244 1033.95 32.477 1031.34 34.8864C1030.97 35.2284 1030.08 34.7555 1030.02 34.2557C1029.79 32.4714 1029.06 29.8056 1028.35 27.523C1028.19 26.9855 1027.05 27.0721 1026.83 27.5897C1025.42 30.8779 1021.79 33.3119 1018.63 34.776C1018.11 35.0183 1016.27 33.4047 1016.31 32.8302C1016.72 27.4733 1016.21 16.4361 1015.69 8.4773C1015.65 7.90057 1014.78 7.8296 1014.63 8.38789C1011.71 19.2691 1004.67 36 994.026 36Z" stroke="#7FF180" stroke-width="5"/>
<path d="M916.052 17.0038C915.865 27.2744 912.174 30.7132 910.26 35.3338C910.127 35.6546 910.368 36 910.715 36H972.442C972.928 36 973.209 35.2804 972.893 34.9106C971.046 32.7475 967.604 27.0625 968.318 15.2372C968.345 14.7888 967.82 14.5278 967.503 14.8461C962.312 20.0565 962.339 26.4775 960.862 29.5988C960.646 30.0554 959.614 29.7588 959.442 29.2842C958.372 26.3421 955.344 20.5216 953.571 16.7932C953.328 16.2818 952.098 16.4703 951.979 17.0241C950.928 21.9241 947.955 28.1589 946.908 30.2664C946.741 30.6024 946.576 30.6628 946.329 30.3805C944.558 28.3594 936.424 21.6743 933.796 14.5239C933.595 13.9786 932.3 13.9619 932.145 14.5219C930.371 20.9244 927.595 26.9543 926.303 29.5972C926.089 30.0353 925.41 29.9362 925.299 29.4613C924.602 26.4737 922.47 19.8902 916.775 16.5749C916.452 16.3873 916.059 16.6309 916.052 17.0038Z" fill="#7FF180" stroke="#7FF180" stroke-width="5"/>
<path d="M1049.22 35.31C1050.66 29.8998 1047.61 18.8008 1057.52 11.9463C1057.99 11.6259 1058.52 12.2605 1058.2 12.7225C1052.03 21.5665 1052.3 36 1063.49 36C1074.32 36 1068.73 31.7735 1068.89 23.5015C1068.9 22.9249 1069.85 22.8893 1070.07 23.4255C1073.15 31.2159 1084.1 35.44 1085.48 35.948C1085.58 35.9839 1085.68 35.9848 1085.78 35.9484C1089.1 34.7131 1086.62 26.769 1085.84 20.6312C1085.77 20.074 1086.86 19.7115 1087.21 20.1507C1090.46 24.2276 1097.56 31.2567 1099.9 34.4554C1100.2 34.8616 1101.45 35.0597 1101.69 34.6135C1104.32 29.5755 1107.12 13.4655 1106.48 3.89826C1106.44 3.31205 1107.12 3.12809 1107.29 3.6899C1109.93 12.3222 1113.79 31.3953 1112.86 35.6698C1112.81 35.8769 1112.63 36 1112.41 36H1063.49H1049.73C1049.38 36 1049.13 35.649 1049.22 35.31Z" fill="#7FF180"/>
<path d="M1063.49 36C1052.3 36 1052.03 21.5665 1058.2 12.7225C1058.52 12.2605 1057.99 11.6259 1057.52 11.9463C1047.61 18.8008 1050.66 29.8998 1049.22 35.31C1049.13 35.649 1049.38 36 1049.73 36H1112.41C1112.63 36 1112.81 35.8769 1112.86 35.6698C1113.79 31.3954 1109.93 12.3222 1107.29 3.6899C1107.12 3.12809 1106.44 3.31205 1106.48 3.89826C1107.12 13.4655 1104.32 29.5755 1101.69 34.6135C1101.45 35.0597 1100.2 34.8616 1099.9 34.4554C1097.56 31.2567 1090.46 24.2276 1087.21 20.1507C1086.86 19.7115 1085.77 20.074 1085.84 20.6312C1086.62 26.769 1089.1 34.7131 1085.78 35.9484C1085.68 35.9848 1085.58 35.9839 1085.48 35.948C1084.1 35.44 1073.15 31.2159 1070.07 23.4255C1069.85 22.8893 1068.9 22.9249 1068.89 23.5015C1068.73 31.7735 1074.32 36 1063.49 36Z" stroke="#7FF180" stroke-width="5"/>
<path d="M1190.27 35.3313C1192.46 30.0461 1198.9 19.5227 1209.87 12.8485C1210.36 12.5559 1210.83 13.153 1210.46 13.5741C1202.82 22.1827 1193.16 36 1204.03 36C1214.67 36 1221.71 19.2691 1224.63 8.38789C1224.78 7.8296 1225.65 7.90057 1225.69 8.4773C1226.21 16.4361 1226.72 27.4733 1226.31 32.8302C1226.27 33.4047 1228.11 35.0183 1228.63 34.776C1231.79 33.3119 1235.42 30.8779 1236.83 27.5897C1237.05 27.0721 1238.19 26.9855 1238.35 27.523C1239.06 29.8056 1239.79 32.4714 1240.02 34.2557C1240.08 34.7555 1240.97 35.2284 1241.34 34.8864C1243.95 32.477 1247.16 27.9244 1247.12 22.0159C1247.12 21.4276 1248.13 21.1081 1248.38 21.6436C1250.46 26.2131 1252.66 32.3845 1251.81 35.6611C1251.76 35.867 1251.57 36 1251.36 36H1204.03H1190.72C1190.37 36 1190.13 35.6544 1190.27 35.3313Z" fill="#7FF180"/>
<path d="M1204.03 36C1193.16 36 1202.82 22.1827 1210.46 13.5741C1210.83 13.153 1210.36 12.5559 1209.87 12.8485C1198.9 19.5227 1192.46 30.0461 1190.27 35.3313C1190.13 35.6544 1190.37 36 1190.72 36H1251.36C1251.57 36 1251.76 35.867 1251.81 35.6611C1252.66 32.3845 1250.46 26.2131 1248.38 21.6436C1248.13 21.1081 1247.12 21.4276 1247.12 22.0159C1247.16 27.9244 1243.95 32.477 1241.34 34.8864C1240.97 35.2284 1240.08 34.7555 1240.02 34.2557C1239.79 32.4714 1239.06 29.8056 1238.35 27.523C1238.19 26.9855 1237.05 27.0721 1236.83 27.5897C1235.42 30.8779 1231.79 33.3119 1228.63 34.776C1228.11 35.0183 1226.27 33.4047 1226.31 32.8302C1226.72 27.4733 1226.21 16.4361 1225.69 8.4773C1225.65 7.90057 1224.78 7.8296 1224.63 8.38789C1221.71 19.2691 1214.67 36 1204.03 36Z" stroke="#7FF180" stroke-width="5"/>
<path d="M1126.05 17.0038C1125.87 27.2744 1122.17 30.7132 1120.26 35.3338C1120.13 35.6546 1120.37 36 1120.71 36H1182.44C1182.93 36 1183.21 35.2804 1182.89 34.9106C1181.05 32.7475 1177.6 27.0625 1178.32 15.2372C1178.34 14.7888 1177.82 14.5278 1177.5 14.8461C1172.31 20.0565 1172.34 26.4775 1170.86 29.5988C1170.65 30.0554 1169.61 29.7588 1169.44 29.2842C1168.37 26.3421 1165.34 20.5216 1163.57 16.7932C1163.33 16.2818 1162.1 16.4703 1161.98 17.0241C1160.93 21.9241 1157.96 28.1589 1156.91 30.2664C1156.74 30.6024 1156.58 30.6628 1156.33 30.3805C1154.56 28.3594 1146.42 21.6743 1143.8 14.5239C1143.6 13.9786 1142.3 13.9619 1142.14 14.5219C1140.37 20.9244 1137.6 26.9543 1136.3 29.5972C1136.09 30.0353 1135.41 29.9362 1135.3 29.4613C1134.6 26.4737 1132.47 19.8902 1126.77 16.5749C1126.45 16.3873 1126.06 16.6309 1126.05 17.0038Z" fill="#7FF180" stroke="#7FF180" stroke-width="5"/>
<path d="M1257.22 35.31C1258.66 29.8998 1255.61 18.8008 1265.52 11.9463C1265.99 11.6259 1266.52 12.2605 1266.2 12.7225C1260.03 21.5665 1260.3 36 1271.49 36C1282.32 36 1276.73 31.7735 1276.89 23.5015C1276.9 22.9249 1277.85 22.8893 1278.07 23.4255C1281.15 31.2159 1292.1 35.44 1293.48 35.948C1293.58 35.9839 1293.68 35.9848 1293.78 35.9484C1297.1 34.7131 1294.62 26.769 1293.84 20.6312C1293.77 20.074 1294.86 19.7115 1295.21 20.1507C1298.46 24.2276 1305.56 31.2567 1307.9 34.4554C1308.2 34.8616 1309.45 35.0597 1309.69 34.6135C1312.32 29.5755 1315.12 13.4655 1314.48 3.89826C1314.44 3.31205 1315.12 3.12809 1315.29 3.6899C1317.93 12.3222 1321.79 31.3953 1320.86 35.6698C1320.81 35.8769 1320.63 36 1320.41 36H1271.49H1257.73C1257.38 36 1257.13 35.649 1257.22 35.31Z" fill="#7FF180"/>
<path d="M1271.49 36C1260.3 36 1260.03 21.5665 1266.2 12.7225C1266.52 12.2605 1265.99 11.6259 1265.52 11.9463C1255.61 18.8008 1258.66 29.8998 1257.22 35.31C1257.13 35.649 1257.38 36 1257.73 36H1320.41C1320.63 36 1320.81 35.8769 1320.86 35.6698C1321.79 31.3954 1317.93 12.3222 1315.29 3.6899C1315.12 3.12809 1314.44 3.31205 1314.48 3.89826C1315.12 13.4655 1312.32 29.5755 1309.69 34.6135C1309.45 35.0597 1308.2 34.8616 1307.9 34.4554C1305.56 31.2567 1298.46 24.2276 1295.21 20.1507C1294.86 19.7115 1293.77 20.074 1293.84 20.6312C1294.62 26.769 1297.1 34.7131 1293.78 35.9484C1293.68 35.9848 1293.58 35.9839 1293.48 35.948C1292.1 35.44 1281.15 31.2159 1278.07 23.4255C1277.85 22.8893 1276.9 22.9249 1276.89 23.5015C1276.73 31.7735 1282.32 36 1271.49 36Z" stroke="#7FF180" stroke-width="5"/>
<path d="M1398.27 35.3313C1400.46 30.0461 1406.9 19.5227 1417.87 12.8485C1418.36 12.5559 1418.83 13.153 1418.46 13.5741C1410.82 22.1827 1401.16 36 1412.03 36C1422.67 36 1429.71 19.2691 1432.63 8.38789C1432.78 7.8296 1433.65 7.90057 1433.69 8.4773C1434.21 16.4361 1434.72 27.4733 1434.31 32.8302C1434.27 33.4047 1436.11 35.0183 1436.63 34.776C1439.79 33.3119 1443.42 30.8779 1444.83 27.5897C1445.05 27.0721 1446.19 26.9855 1446.35 27.523C1447.06 29.8056 1447.79 32.4714 1448.02 34.2557C1448.08 34.7555 1448.97 35.2284 1449.34 34.8864C1451.95 32.477 1455.16 27.9244 1455.12 22.0159C1455.12 21.4276 1456.13 21.1081 1456.38 21.6436C1458.46 26.2131 1460.66 32.3845 1459.81 35.6611C1459.76 35.867 1459.57 36 1459.36 36H1412.03H1398.72C1398.37 36 1398.13 35.6544 1398.27 35.3313Z" fill="#7FF180"/>
<path d="M1412.03 36C1401.16 36 1410.82 22.1827 1418.46 13.5741C1418.83 13.153 1418.36 12.5559 1417.87 12.8485C1406.9 19.5227 1400.46 30.0461 1398.27 35.3313C1398.13 35.6544 1398.37 36 1398.72 36H1459.36C1459.57 36 1459.76 35.867 1459.81 35.6611C1460.66 32.3845 1458.46 26.2131 1456.38 21.6436C1456.13 21.1081 1455.12 21.4276 1455.12 22.0159C1455.16 27.9244 1451.95 32.477 1449.34 34.8864C1448.97 35.2284 1448.08 34.7555 1448.02 34.2557C1447.79 32.4714 1447.06 29.8056 1446.35 27.523C1446.19 26.9855 1445.05 27.0721 1444.83 27.5897C1443.42 30.8779 1439.79 33.3119 1436.63 34.776C1436.11 35.0183 1434.27 33.4047 1434.31 32.8302C1434.72 27.4733 1434.21 16.4361 1433.69 8.4773C1433.65 7.90057 1432.78 7.8296 1432.63 8.38789C1429.71 19.2691 1422.67 36 1412.03 36Z" stroke="#7FF180" stroke-width="5"/>
<path d="M1334.05 17.0038C1333.87 27.2744 1330.17 30.7132 1328.26 35.3338C1328.13 35.6546 1328.37 36 1328.71 36H1390.44C1390.93 36 1391.21 35.2804 1390.89 34.9106C1389.05 32.7475 1385.6 27.0625 1386.32 15.2372C1386.34 14.7888 1385.82 14.5278 1385.5 14.8461C1380.31 20.0565 1380.34 26.4775 1378.86 29.5988C1378.65 30.0554 1377.61 29.7588 1377.44 29.2842C1376.37 26.3421 1373.34 20.5216 1371.57 16.7932C1371.33 16.2818 1370.1 16.4703 1369.98 17.0241C1368.93 21.9241 1365.96 28.1589 1364.91 30.2664C1364.74 30.6024 1364.58 30.6628 1364.33 30.3805C1362.56 28.3594 1354.42 21.6743 1351.8 14.5239C1351.6 13.9786 1350.3 13.9619 1350.14 14.5219C1348.37 20.9244 1345.6 26.9543 1344.3 29.5972C1344.09 30.0353 1343.41 29.9362 1343.3 29.4613C1342.6 26.4737 1340.47 19.8902 1334.77 16.5749C1334.45 16.3873 1334.06 16.6309 1334.05 17.0038Z" fill="#7FF180" stroke="#7FF180" stroke-width="5"/>
<path d="M1467.22 35.31C1468.66 29.8998 1465.61 18.8008 1475.52 11.9463C1475.99 11.6259 1476.52 12.2605 1476.2 12.7225C1470.03 21.5665 1470.3 36 1481.49 36C1492.32 36 1486.73 31.7735 1486.89 23.5015C1486.9 22.9249 1487.85 22.8893 1488.07 23.4255C1491.15 31.2159 1502.1 35.44 1503.48 35.948C1503.58 35.9839 1503.68 35.9848 1503.78 35.9484C1507.1 34.7131 1504.62 26.769 1503.84 20.6312C1503.77 20.074 1504.86 19.7115 1505.21 20.1507C1508.46 24.2276 1515.56 31.2567 1517.9 34.4554C1518.2 34.8616 1519.45 35.0597 1519.69 34.6135C1522.32 29.5755 1525.12 13.4655 1524.48 3.89826C1524.44 3.31205 1525.12 3.12809 1525.29 3.6899C1527.93 12.3222 1531.79 31.3953 1530.86 35.6698C1530.81 35.8769 1530.63 36 1530.41 36H1481.49H1467.73C1467.38 36 1467.13 35.649 1467.22 35.31Z" fill="#7FF180"/>
<path d="M1481.49 36C1470.3 36 1470.03 21.5665 1476.2 12.7225C1476.52 12.2605 1475.99 11.6259 1475.52 11.9463C1465.61 18.8008 1468.66 29.8998 1467.22 35.31C1467.13 35.649 1467.38 36 1467.73 36H1530.41C1530.63 36 1530.81 35.8769 1530.86 35.6698C1531.79 31.3954 1527.93 12.3222 1525.29 3.6899C1525.12 3.12809 1524.44 3.31205 1524.48 3.89826C1525.12 13.4655 1522.32 29.5755 1519.69 34.6135C1519.45 35.0597 1518.2 34.8616 1517.9 34.4554C1515.56 31.2567 1508.46 24.2276 1505.21 20.1507C1504.86 19.7115 1503.77 20.074 1503.84 20.6312C1504.62 26.769 1507.1 34.7131 1503.78 35.9484C1503.68 35.9848 1503.58 35.9839 1503.48 35.948C1502.1 35.44 1491.15 31.2159 1488.07 23.4255C1487.85 22.8893 1486.9 22.9249 1486.89 23.5015C1486.73 31.7735 1492.32 36 1481.49 36Z" stroke="#7FF180" stroke-width="5"/>
</svg>
