<svg width="1253" height="600" viewBox="0 0 1253 600" fill="none" xmlns="http://www.w3.org/2000/svg">
<path d="M97 592C99.0401 586.793 106.384 574.744 119.441 568.198C111.706 576.132 99.1931 592 111.026 592C122.858 592 130.236 572 132.446 562C133.211 572 134.282 592 132.446 592C136.441 590.843 144.432 587.041 144.432 581.091C145.537 584.149 147.594 590.612 146.982 592C150.127 589.851 155.856 583.372 153.612 574.645C155.907 578.777 160.14 588.033 158.712 592" stroke="#1B9C37" stroke-width="5"/>
<path d="M1099 28C1099 28 1099.91 22.35 1112.18 15.75C1104.91 23.75 1101.06 28 1112.18 28C1123.3 28 1123.77 20.5833 1125.84 10.5C1126.56 20.5833 1132.31 28 1132.31 28C1136.07 26.8333 1140.94 23 1140.94 17C1141.98 20.0833 1146.55 26.6 1145.98 28C1148.93 25.8333 1149.33 15.75 1157 8C1154.6 21 1157 28 1157 28" stroke="#1B9C37" stroke-width="5"/>
<path d="M659 525C660.861 519.9 661.559 521.6 661.559 510.186C669.702 514.314 671.098 525 671.098 525C671.098 525 676.992 517.795 679.008 508C679.706 517.795 693.712 525 692.037 525C692.037 525 697.853 513.829 697.853 508C698.861 510.995 705.856 523.64 705.298 525C708.167 522.895 706.694 514.314 713.906 508C712.51 525 716 525 716 525" stroke="#1B9C37" stroke-width="5"/>
<path d="M1013 308C1014.86 302.9 1015.56 304.6 1015.56 293.186C1023.7 297.314 1025.1 308 1025.1 308C1025.1 308 1030.99 300.795 1033.01 291C1033.71 300.795 1047.71 308 1046.04 308C1046.04 308 1051.85 296.829 1051.85 291C1052.86 293.995 1059.86 306.64 1059.3 308C1062.17 305.895 1060.69 297.314 1067.91 291C1066.51 308 1070 308 1070 308" stroke="#1B9C37" stroke-width="5"/>
<path d="M3 250C5.10803 244.522 0.57576 231.322 14.0672 224.435C6.07422 232.783 5.26614 250 17.4927 250C29.7193 250 21.0061 244.609 23.2898 234.087C24.0803 244.609 39.6271 250 39.6271 250C43.7553 248.783 39.6271 238 39.6271 231.739C40.7689 234.957 55.2793 248.539 54.6468 250C57.8967 247.739 62.2358 223.183 59.9169 214C62.2885 218.348 68.2437 245.826 66.768 250" stroke="#1B9C37" stroke-width="5"/>
<path d="M1188 486C1190.04 480.62 1197.38 468.169 1210.44 461.405C1202.71 469.603 1190.19 486 1202.03 486C1213.86 486 1221.24 465.333 1223.45 455C1224.21 465.333 1225.28 486 1223.45 486C1227.44 484.804 1235.43 480.876 1235.43 474.727C1236.54 477.887 1238.59 484.565 1237.98 486C1241.13 483.78 1246.86 477.084 1244.61 468.066C1246.91 472.336 1251.14 481.901 1249.71 486" stroke="#1B9C37" stroke-width="5"/>
<path d="M992 562C992 562 992.911 556.35 1005.18 549.75C997.912 557.75 994.061 562 1005.18 562C1016.3 562 1016.77 554.583 1018.84 544.5C1019.56 554.583 1025.31 562 1025.31 562C1029.07 560.833 1033.94 557 1033.94 551C1034.98 554.083 1039.55 560.6 1038.98 562C1041.93 559.833 1042.33 549.75 1050 542C1047.6 555 1050 562 1050 562" stroke="#1B9C37" stroke-width="5"/>
<path d="M200 45C201.861 39.9 202.559 41.6 202.559 30.1857C210.702 34.3143 212.098 45 212.098 45C212.098 45 217.992 37.7952 220.008 28C220.706 37.7952 234.712 45 233.037 45C233.037 45 238.853 33.8286 238.853 28C239.861 30.9952 246.856 43.64 246.298 45C249.167 42.8952 247.694 34.3143 254.906 28C253.51 45 257 45 257 45" stroke="#1B9C37" stroke-width="5"/>
<path d="M354 378C356.108 372.522 351.576 359.322 365.067 352.435C357.074 360.783 356.266 378 368.493 378C380.719 378 372.006 372.609 374.29 362.087C375.08 372.609 390.627 378 390.627 378C394.755 376.783 390.627 366 390.627 359.739C391.769 362.957 406.279 376.539 405.647 378C408.897 375.739 413.236 351.183 410.917 342C413.288 346.348 419.244 373.826 417.768 378" stroke="#1B9C37" stroke-width="5"/>
<path d="M716 140C718.04 134.62 725.384 122.169 738.441 115.405C730.706 123.603 718.193 140 730.026 140C741.858 140 749.236 119.333 751.446 109C752.211 119.333 753.282 140 751.446 140C755.441 138.804 763.432 134.876 763.432 128.727C764.537 131.887 766.594 138.565 765.982 140C769.127 137.78 774.856 131.084 772.612 122.066C774.907 126.336 779.14 135.901 777.712 140" stroke="#1B9C37" stroke-width="5"/>
</svg>
