<svg width="42" height="37" viewBox="0 0 42 37" fill="none" xmlns="http://www.w3.org/2000/svg">
<path d="M1.89056 13.791L2.83925 14.1072L2.83925 14.1072L1.89056 13.791ZM33.5221 20.4737C33.9127 20.8642 34.5458 20.8642 34.9364 20.4737L41.3003 14.1097C41.6908 13.7192 41.6908 13.086 41.3003 12.6955C40.9098 12.305 40.2766 12.305 39.8861 12.6955L34.2292 18.3524L28.5724 12.6955C28.1818 12.305 27.5487 12.305 27.1582 12.6956C26.7676 13.0861 26.7676 13.7192 27.1582 14.1098L33.5221 20.4737ZM28.3717 31.8328C22.6164 34.0369 18.001 34.4896 14.3725 33.8674C10.7572 33.2474 8.06206 31.5513 6.13618 29.3419C2.23833 24.8703 1.45807 18.251 2.83925 14.1072L0.94187 13.4747C-0.6503 18.2516 0.238739 25.6201 4.62855 30.6561C6.84651 33.2006 9.94979 35.1382 14.0345 35.8386C18.106 36.5368 23.0921 35.9963 29.0869 33.7005L28.3717 31.8328ZM2.83925 14.1072C5.86623 5.02557 13.4613 1.66373 20.2727 2.90032C27.0899 4.13795 33.2292 10.0053 33.2292 19.7666L35.2292 19.7666C35.2292 9.02783 28.3878 2.34089 20.63 0.932481C12.8663 -0.476977 4.29208 3.42338 0.94187 13.4747L2.83925 14.1072Z" fill="#687789"/>
</svg>
